<svg width="31" height="32" viewBox="0 0 31 32" fill="none" xmlns="http://www.w3.org/2000/svg">
<path d="M13.8855 16C13.8855 15.4477 13.4517 15 12.9167 15C12.3817 15 11.948 15.4477 11.948 16V21.3333C11.948 21.8856 12.3817 22.3333 12.9167 22.3333C13.4517 22.3333 13.8855 21.8856 13.8855 21.3333V16Z" fill="#2A2A2A"/>
<path d="M19.0521 16C19.0521 15.4477 18.6184 15 18.0834 15C17.5483 15 17.1146 15.4477 17.1146 16V21.3333C17.1146 21.8856 17.5483 22.3333 18.0834 22.3333C18.6184 22.3333 19.0521 21.8856 19.0521 21.3333V16Z" fill="#2A2A2A"/>
<path fill-rule="evenodd" clip-rule="evenodd" d="M20.0601 4.62623C19.6818 4.2357 19.0684 4.2357 18.6901 4.62623C18.3118 5.01675 18.3118 5.64992 18.6901 6.04044L22.203 9.66668H9.11056L12.6235 6.04046C13.0018 5.64994 13.0018 5.01677 12.6235 4.62625C12.2451 4.23572 11.6318 4.23572 11.2534 4.62625L6.37052 9.66668H2.58337C2.04835 9.66668 1.61462 10.1144 1.61462 10.6667C1.61462 11.219 2.04835 11.6667 2.58337 11.6667H3.28645C3.5789 12.8083 3.95715 14.1245 4.39727 15.656L5.7211 20.2626C6.24702 22.0935 6.56943 23.216 7.13454 24.1287C8.10745 25.7001 9.60184 26.8515 11.3379 27.3675C12.3463 27.6671 13.4805 27.667 15.3306 27.6667H15.6695C17.5196 27.667 18.6537 27.6671 19.6622 27.3675C21.3982 26.8515 22.8926 25.7001 23.8655 24.1287C24.4307 23.216 24.7531 22.0935 25.279 20.2625L26.6027 15.6563C27.0429 14.1247 27.4212 12.8083 27.7136 11.6667H28.4167C28.9517 11.6667 29.3855 11.219 29.3855 10.6667C29.3855 10.1144 28.9517 9.66668 28.4167 9.66668H24.943L20.0601 4.62623ZM6.26131 15.11C5.88105 13.7867 5.55584 12.6547 5.29311 11.6667H25.707C25.4442 12.6547 25.119 13.7867 24.7388 15.11L23.4697 19.5261C22.8799 21.5783 22.6322 22.407 22.233 23.0517C21.5139 24.2131 20.4093 25.0642 19.1261 25.4455C18.4138 25.6572 17.5738 25.6667 15.5 25.6667C13.4263 25.6667 12.5863 25.6572 11.8739 25.4455C10.5908 25.0642 9.4862 24.2131 8.7671 23.0517C8.36792 22.407 8.12018 21.5783 7.53042 19.5261L6.26131 15.11Z" fill="#2A2A2A"/>
</svg>
