<svg width="64" height="29" viewBox="0 0 64 29" fill="none" xmlns="http://www.w3.org/2000/svg">
<path fill-rule="evenodd" clip-rule="evenodd" d="M46.8673 13.2834C49.7232 10.1648 50.7744 9.42893 52.982 8.95588C54.3136 8.65803 54.8217 8.65803 56.2408 8.8858C60.3231 9.53405 62.9512 12.6352 63.1964 17.1204C63.249 18.049 63.249 19.1002 63.1789 19.4507L63.0563 20.0814H56.6788H50.2838V20.5194C50.2838 21.2553 50.9496 22.7971 51.6154 23.5504C53.1397 25.3375 55.5926 25.8807 58.9565 25.1623C59.4471 25.0572 59.6923 25.0747 59.78 25.2149C59.85 25.3375 59.9201 26.1084 59.9201 26.9494C59.9201 27.7815 59.9483 28.1862 59.7611 28.413C59.558 28.659 59.1014 28.6958 58.0805 28.8416C54.261 29.3848 51.1073 28.5263 48.7596 26.3362C47.5682 25.2149 46.7973 24.006 46.2541 22.4116C45.2555 19.5383 42.8902 17.6986 39.1233 16.8927C36.0922 16.2619 35.1637 15.929 34.3752 15.2457C33.4466 14.4573 33.1138 13.8266 33.1138 12.898C33.1138 10.9883 35.041 9.60414 37.3888 9.77934C39.0006 9.91951 39.754 10.4101 41.5586 12.4775C43.9765 15.2633 44.9226 15.4209 46.8673 13.2834ZM58.1505 13.6163C57.8177 13.301 57.2395 12.8805 56.854 12.7228C54.261 11.5489 51.3526 12.898 50.3539 15.7363C50.2313 16.1218 50.1086 16.5072 50.1086 16.5948C50.1086 16.6824 52.2461 16.7525 54.8392 16.7525H59.5697V16.3495C59.5697 15.7363 58.7988 14.2646 58.1505 13.6163ZM0.192725 5.88979C0.648258 3.03395 2.45287 0.949013 5.08094 0.195631C6.14969 -0.102217 9.21578 -0.0496559 10.3897 0.283234L11.0379 0.47596V2.24553C11.0379 3.8399 11.0029 3.99758 10.7401 3.87494C10.5649 3.80485 9.70635 3.71725 8.84785 3.66469C7.46373 3.57709 7.16588 3.61213 6.53514 3.9275C5.18607 4.62832 4.69549 5.66203 4.66045 7.79953L4.64293 9.13108L10.2845 9.18365L15.9261 9.21869L15.9787 15.7538C16.0313 22.0963 16.0488 22.289 16.4342 23.1475C17.1175 24.6718 18.6418 25.3551 20.4815 24.9696C21.2173 24.8119 21.6203 24.6192 22.0933 24.1286C23.2322 23.0073 23.3023 22.4467 23.3023 15.4034V9.21869H25.5624H27.8225L27.8926 11.8818C27.9627 14.1244 28.0503 14.7376 28.3832 15.5961C28.8913 16.9277 30.0652 18.0665 31.8523 18.9951C33.4291 19.8011 34.3402 20.1164 36.5653 20.5895C38.3874 20.9925 39.0882 21.2903 39.9117 22.0787C40.7351 22.8496 40.998 23.4278 40.998 24.479C40.998 25.688 40.5249 26.4413 39.351 27.037C38.3173 27.5802 36.6529 27.6853 35.4965 27.2823C34.6205 26.9845 33.5693 26.0208 32.9736 25.0047C31.9048 23.13 31.1164 22.4817 29.6622 22.2715C28.6285 22.1138 28.0153 22.6043 27.1568 24.2688C25.1594 28.1058 21.1648 29.7527 16.8197 28.5438C14.0865 27.7904 12.1592 25.7756 11.581 23.0949C11.4759 22.5518 11.3883 20.3442 11.3883 17.6986V13.2484L8.02439 13.2834L4.64293 13.336V20.9224V28.4912H2.33023H0V17.7512C0 11.1459 0.070082 6.59061 0.192725 5.88979Z" fill="#2A2A2A"/>
</svg>
